# xmcd
#
# Track frame offsets:
# 150
# 8835
# 21888
# 30883
# 51003
# 56153
# 75354
# 84464
# 96538
# 101473
# 117594
# 121447
# 136037
# 139614
# 171550
# 172635
# 190865
# 198592
# 219893
# 222683
# 248615
# 251245
# 267027
# 280903
# 299827
# 311021
#
# Disc length: 4393 seconds
#
# Revision: 1
# Processed by: cddbd v1.5.1PL0 Copyright (c) Steve Scherf et al.
# Submitted via: inCDius 2.0b9
#
DISCID=7a11271a
DTITLE=Kacey Jones - Every Man I Love Is Either Married, Gay Or Dead--Live!
DYEAR=1900
DGENRE=
TTITLE0=Opening Monologue [Live]
TTITLE1=Every Man I Love Is Either Married, Gay, Or Dead [Live]
TTITLE2=Bubba Bit [Live]
TTITLE3=1-900-Bubba [Live]
TTITLE4=Christmas Underwear Bit [Live]
TTITLE5=I'm Down To My Christmas Underwear [Live]
TTITLE6=Waitin' For The Guy Bit [Live]
TTITLE7=Waitin' For The Guy To Die [Live]
TTITLE8=I Could Get Over Him Bit [Live]
TTITLE9=I Could Get Over Him [Live]
TTITLE10=Why They Can't Send'em Bit [Live]
TTITLE11=Why They Can't Send'em All? [Live]
TTITLE12=Pizza Man Bit [Live]
TTITLE13=Dressin' Up For The Pizza Man [Live]
TTITLE14=We're All In This Alone Intro. [Live]
TTITLE15=We're All In This Alone [Live]
TTITLE16=Piggly Wiggly Bit [Live]
TTITLE17=Down At The Piggly Wiggly [Live]
TTITLE18=My Own Bed Bit [Live]
TTITLE19=My Own Bed [Live]
TTITLE20=Put The Seat Back Bit [Live]
TTITLE21=Put The Seat Back Down [Live]
TTITLE22=The Vasectomy Song
TTITLE23=I'm Down To My Christmas Underwear
TTITLE24=Waitin' For The Guy To Die
TTITLE25=Down At The Piggly Wiggly
EXTD=
EXTT0=
EXTT1=
EXTT2=
EXTT3=
EXTT4=
EXTT5=
EXTT6=
EXTT7=
EXTT8=
EXTT9=
EXTT10=
EXTT11=
EXTT12=
EXTT13=
EXTT14=
EXTT15=
EXTT16=
EXTT17=
EXTT18=
EXTT19=
EXTT20=
EXTT21=
EXTT22=
EXTT23=
EXTT24=
EXTT25=
PLAYORDER=
